<?xml version="1.0" encoding="UTF-8"?>
<svg xmlns="http://www.w3.org/2000/svg" width="1200" height="760" viewBox="0 0 1200 760" role="img" aria-label="midnight compiler star poster">
<metadata><starweave xmlns="https://github.com/Sebby1770/starweave" data-params="{&quot;animated&quot;: true, &quot;generator&quot;: &quot;starweave 0.2.0&quot;, &quot;planets&quot;: 4, &quot;size&quot;: [1200, 760], &quot;stars&quot;: 300, &quot;world&quot;: {&quot;brightness&quot;: 0.761, &quot;density&quot;: 0.904, &quot;features&quot;: [&quot;moon&quot;, &quot;rings&quot;], &quot;mood&quot;: &quot;turbulent&quot;, &quot;name&quot;: &quot;The Gilded Harbor&quot;, &quot;palette&quot;: &quot;synthwave&quot;, &quot;seed&quot;: &quot;midnight compiler&quot;, &quot;turbulence&quot;: 1.0, &quot;variant&quot;: 0}}" /></metadata>
<style>/*<![CDATA[*/
@keyframes c60f20e958-drift {from{transform:translate(0,0)}to{transform:translate(16px,-9.6px)}}
@keyframes c60f20e958-twinkle {from{opacity:0.25}to{opacity:1}}
.c60f20e958-drift{animation:c60f20e958-drift 21.3s ease-in-out infinite alternate}
.c60f20e958-tw{animation:c60f20e958-twinkle 3s ease-in-out infinite alternate}
/*]]>*/</style>
<defs>
<linearGradient id="c60f20e958-space" x1="0%" x2="100%" y1="0%" y2="100%"><stop offset="0%" stop-color="#170b2e" /><stop offset="100%" stop-color="#2a0b3d" /></linearGradient>
<filter id="c60f20e958-soft" x="-30%" y="-30%" width="160%" height="160%"><feGaussianBlur stdDeviation="24" /></filter>
<filter id="c60f20e958-glow" x="-60%" y="-60%" width="220%" height="220%"><feGaussianBlur stdDeviation="5" result="blur" /><feMerge><feMergeNode in="blur" /><feMergeNode in="SourceGraphic" /></feMerge></filter>
</defs>
<rect width="1200" height="760" fill="url(#c60f20e958-space)" />
<g style="mix-blend-mode: screen" class="c60f20e958-drift">
<ellipse cx="1153.97" cy="458.31" rx="127.58" ry="123.71" fill="#22d3ee" opacity="0.25" filter="url(#c60f20e958-soft)" transform="rotate(151.16 1153.97 458.31)" />
<ellipse cx="601" cy="185.95" rx="148.88" ry="84.72" fill="#fb7185" opacity="0.32" filter="url(#c60f20e958-soft)" transform="rotate(29.38 601 185.95)" />
<ellipse cx="1103.54" cy="483.55" rx="138.75" ry="82.53" fill="#fb7185" opacity="0.15" filter="url(#c60f20e958-soft)" transform="rotate(6.99 1103.54 483.55)" />
<ellipse cx="170.93" cy="777.03" rx="243.09" ry="147.31" fill="#fb7185" opacity="0.32" filter="url(#c60f20e958-soft)" transform="rotate(71.39 170.93 777.03)" />
<ellipse cx="463.84" cy="749.28" rx="161.16" ry="128.95" fill="#22d3ee" opacity="0.30" filter="url(#c60f20e958-soft)" transform="rotate(134.14 463.84 749.28)" />
<ellipse cx="953.31" cy="585.43" rx="273.94" ry="142.33" fill="#f000b8" opacity="0.34" filter="url(#c60f20e958-soft)" transform="rotate(169.83 953.31 585.43)" />
<ellipse cx="891.4" cy="381.21" rx="162.34" ry="82.51" fill="#22d3ee" opacity="0.33" filter="url(#c60f20e958-soft)" transform="rotate(137.1 891.4 381.21)" />
<ellipse cx="959.04" cy="506.36" rx="231.31" ry="156.39" fill="#22d3ee" opacity="0.19" filter="url(#c60f20e958-soft)" transform="rotate(114.09 959.04 506.36)" />
<ellipse cx="1068.33" cy="741.52" rx="171.57" ry="117.32" fill="#f000b8" opacity="0.18" filter="url(#c60f20e958-soft)" transform="rotate(89.53 1068.33 741.52)" />
<ellipse cx="90.02" cy="6.66" rx="252.49" ry="94.88" fill="#f000b8" opacity="0.26" filter="url(#c60f20e958-soft)" transform="rotate(147.49 90.02 6.66)" />
<ellipse cx="1016.24" cy="668.59" rx="223.43" ry="111.89" fill="#fb7185" opacity="0.23" filter="url(#c60f20e958-soft)" transform="rotate(95.02 1016.24 668.59)" />
<ellipse cx="384.89" cy="726.9" rx="117.07" ry="59.95" fill="#f000b8" opacity="0.17" filter="url(#c60f20e958-soft)" transform="rotate(93.3 384.89 726.9)" />
<ellipse cx="1154.07" cy="678.16" rx="195.64" ry="89.86" fill="#22d3ee" opacity="0.22" filter="url(#c60f20e958-soft)" transform="rotate(55.72 1154.07 678.16)" />
</g>
<g fill="none" opacity="0.22">
<ellipse cx="756.78" cy="335.28" rx="219.85" ry="72.97" stroke="#f000b8" stroke-width="1.2" stroke-dasharray="8.8 17.6" transform="rotate(-14.22 756.78 335.28)" />
<ellipse cx="756.78" cy="335.28" rx="315.39" ry="108.12" stroke="#22d3ee" stroke-width="1.2" stroke-dasharray="8.7 10.9" transform="rotate(-15.32 756.78 335.28)" />
<ellipse cx="756.78" cy="335.28" rx="362.41" ry="123.77" stroke="#fde047" stroke-width="1.2" stroke-dasharray="8.0 8.7" transform="rotate(-8.18 756.78 335.28)" />
<ellipse cx="756.78" cy="335.28" rx="510.82" ry="150.87" stroke="#f000b8" stroke-width="1.2" stroke-dasharray="8.8 20.7" transform="rotate(-6.93 756.78 335.28)" />
<ellipse cx="756.78" cy="335.28" rx="552.12" ry="202.32" stroke="#22d3ee" stroke-width="1.2" stroke-dasharray="7.5 15.1" transform="rotate(18.35 756.78 335.28)" />
</g>
<g>
<circle cx="903.22" cy="548.48" r="0.86" fill="#a5f3fc" opacity="0.69" class="c60f20e958-tw" style="animation-duration:4.3s;animation-delay:2.3s" />
<circle cx="391.68" cy="344.7" r="1.77" fill="#fdf4ff" opacity="0.54" />
<circle cx="308.22" cy="436.68" r="0.61" fill="#c4b5fd" opacity="0.78" />
<circle cx="389.57" cy="401.27" r="1.11" fill="#fdf4ff" opacity="0.72" />
<circle cx="827.88" cy="331.95" r="0.99" fill="#fdf4ff" opacity="0.56" class="c60f20e958-tw" style="animation-duration:2.8s;animation-delay:2.4s" />
<circle cx="229.75" cy="230.2" r="1.33" fill="#fdf4ff" opacity="0.53" />
<circle cx="1015.03" cy="265.78" r="0.47" fill="#fbcfe8" opacity="0.44" />
<circle cx="404.8" cy="193.35" r="1.84" fill="#c4b5fd" opacity="0.71" class="c60f20e958-tw" style="animation-duration:4.2s;animation-delay:1.5s" />
<circle cx="310.91" cy="185.26" r="1.61" fill="#c4b5fd" opacity="0.66" class="c60f20e958-tw" style="animation-duration:3.4s;animation-delay:1.1s" />
<circle cx="979.71" cy="401.9" r="1.74" fill="#a5f3fc" opacity="0.66" />
<circle cx="305.15" cy="737.77" r="2.24" fill="#a5f3fc" opacity="0.71" />
<circle cx="693.6" cy="637" r="1.63" fill="#a5f3fc" opacity="0.79" />
<circle cx="111.8" cy="591.01" r="1.23" fill="#fdf4ff" opacity="0.56" />
<circle cx="339.56" cy="213.6" r="1.47" fill="#c4b5fd" opacity="0.85" class="c60f20e958-tw" style="animation-duration:2.1s;animation-delay:3.6s" />
<circle cx="1048.97" cy="348.8" r="1.42" fill="#fdf4ff" opacity="0.47" />
<circle cx="448.35" cy="586.23" r="1.22" fill="#fdf4ff" opacity="0.85" />
<circle cx="1118.12" cy="148.24" r="2.36" fill="#c4b5fd" opacity="0.40" class="c60f20e958-tw" style="animation-duration:2.5s;animation-delay:0.8s" />
<circle cx="15.24" cy="593.3" r="0.91" fill="#fdf4ff" opacity="0.53" />
<circle cx="189.16" cy="40.88" r="0.94" fill="#c4b5fd" opacity="0.66" />
<circle cx="812.82" cy="497.2" r="0.70" fill="#c4b5fd" opacity="0.75" class="c60f20e958-tw" style="animation-duration:2.6s;animation-delay:3.2s" />
<circle cx="993.08" cy="522.46" r="1.19" fill="#c4b5fd" opacity="0.51" />
<circle cx="300.71" cy="664" r="1.44" fill="#fdf4ff" opacity="0.86" />
<circle cx="40.61" cy="734.3" r="0.89" fill="#a5f3fc" opacity="0.61" />
<circle cx="309.53" cy="394.81" r="1.82" fill="#fdf4ff" opacity="0.54" class="c60f20e958-tw" style="animation-duration:4.4s;animation-delay:2.0s" />
<circle cx="645.1" cy="415.47" r="0.83" fill="#c4b5fd" opacity="0.80" class="c60f20e958-tw" style="animation-duration:3.3s;animation-delay:3.2s" />
<circle cx="49.34" cy="303.37" r="1.52" fill="#fbcfe8" opacity="0.72" class="c60f20e958-tw" style="animation-duration:3.1s;animation-delay:2.5s" />
<circle cx="271" cy="54.57" r="1.37" fill="#a5f3fc" opacity="0.67" />
<circle cx="1061.34" cy="498" r="0.52" fill="#fdf4ff" opacity="0.80" />
<circle cx="749.26" cy="645.97" r="0.53" fill="#a5f3fc" opacity="0.60" />
<circle cx="1065.96" cy="419.53" r="1.38" fill="#c4b5fd" opacity="0.71" />
<circle cx="829.79" cy="158.36" r="1.53" fill="#c4b5fd" opacity="0.66" />
<circle cx="661.44" cy="552.97" r="2.02" fill="#fbcfe8" opacity="0.55" />
<circle cx="665.93" cy="386.59" r="0.75" fill="#fdf4ff" opacity="0.73" class="c60f20e958-tw" style="animation-duration:2.8s;animation-delay:3.9s" />
<circle cx="873.41" cy="113.18" r="1.07" fill="#fbcfe8" opacity="0.57" class="c60f20e958-tw" style="animation-duration:2.1s;animation-delay:2.6s" />
<circle cx="800.3" cy="93.07" r="2.16" fill="#fdf4ff" opacity="0.86" />
<circle cx="288.03" cy="679.81" r="1.30" fill="#c4b5fd" opacity="0.54" class="c60f20e958-tw" style="animation-duration:2.3s;animation-delay:0.8s" />
<circle cx="629.33" cy="286.32" r="1.44" fill="#fdf4ff" opacity="0.39" class="c60f20e958-tw" style="animation-duration:3.9s;animation-delay:1.2s" />
<circle cx="680.59" cy="170.86" r="1.64" fill="#fbcfe8" opacity="0.68" class="c60f20e958-tw" style="animation-duration:2.1s;animation-delay:3.7s" />
<circle cx="676.74" cy="337.35" r="0.69" fill="#fdf4ff" opacity="0.72" />
<circle cx="366.25" cy="86.14" r="1.84" fill="#fdf4ff" opacity="0.86" />
<circle cx="4.87" cy="347.73" r="1.29" fill="#a5f3fc" opacity="0.71" />
<circle cx="979.83" cy="32.16" r="2.01" fill="#c4b5fd" opacity="0.60" />
<circle cx="488.08" cy="323.89" r="0.81" fill="#fdf4ff" opacity="0.43" />
<circle cx="133.84" cy="640.92" r="1.51" fill="#fbcfe8" opacity="0.85" class="c60f20e958-tw" style="animation-duration:2.0s;animation-delay:1.4s" />
<circle cx="723.53" cy="205.55" r="0.95" fill="#fdf4ff" opacity="0.85" class="c60f20e958-tw" style="animation-duration:2.3s;animation-delay:0.5s" />
<circle cx="806.96" cy="723.79" r="1.18" fill="#fdf4ff" opacity="0.42" class="c60f20e958-tw" style="animation-duration:4.4s;animation-delay:1.4s" />
<circle cx="987.26" cy="465.53" r="1.01" fill="#a5f3fc" opacity="0.68" class="c60f20e958-tw" style="animation-duration:4.3s;animation-delay:3.3s" />
<circle cx="592.88" cy="179.27" r="1.73" fill="#fbcfe8" opacity="0.44" />
<circle cx="852.97" cy="304.46" r="1.02" fill="#c4b5fd" opacity="0.44" />
<circle cx="1097.78" cy="123.59" r="1.17" fill="#c4b5fd" opacity="0.53" class="c60f20e958-tw" style="animation-duration:2.1s;animation-delay:1.6s" />
<circle cx="986.42" cy="298.74" r="1.31" fill="#fdf4ff" opacity="0.70" />
<circle cx="27.3" cy="441.26" r="1.09" fill="#fbcfe8" opacity="0.85" />
<circle cx="163.43" cy="705.08" r="0.61" fill="#fbcfe8" opacity="0.42" />
<circle cx="113.56" cy="137.6" r="2.18" fill="#fdf4ff" opacity="0.85" class="c60f20e958-tw" style="animation-duration:3.9s;animation-delay:2.3s" />
<circle cx="442.17" cy="166.21" r="0.90" fill="#a5f3fc" opacity="0.48" />
<circle cx="23.8" cy="576.05" r="1.25" fill="#c4b5fd" opacity="0.59" />
<circle cx="60.38" cy="718.62" r="1.29" fill="#fbcfe8" opacity="0.69" class="c60f20e958-tw" style="animation-duration:2.3s;animation-delay:3.2s" />
<circle cx="417.97" cy="714.78" r="0.53" fill="#c4b5fd" opacity="0.49" class="c60f20e958-tw" style="animation-duration:3.9s;animation-delay:2.6s" />
<circle cx="415.12" cy="86.67" r="1.19" fill="#fdf4ff" opacity="0.54" />
<circle cx="759.7" cy="433.34" r="0.81" fill="#fdf4ff" opacity="0.60" class="c60f20e958-tw" style="animation-duration:2.0s;animation-delay:3.7s" />
<circle cx="1093.85" cy="2.47" r="0.39" fill="#fbcfe8" opacity="0.74" />
<circle cx="84.1" cy="143.47" r="0.77" fill="#c4b5fd" opacity="0.78" />
<circle cx="635.51" cy="483.76" r="0.46" fill="#c4b5fd" opacity="0.52" />
<circle cx="808.47" cy="615.5" r="1.09" fill="#fdf4ff" opacity="0.73" />
<circle cx="903.65" cy="625.79" r="0.83" fill="#fdf4ff" opacity="0.76" />
<circle cx="86.04" cy="323.25" r="0.74" fill="#fdf4ff" opacity="0.72" class="c60f20e958-tw" style="animation-duration:2.7s;animation-delay:2.1s" />
<circle cx="1130" cy="635.25" r="1.27" fill="#c4b5fd" opacity="0.41" class="c60f20e958-tw" style="animation-duration:3.7s;animation-delay:3.4s" />
<circle cx="556.8" cy="299.57" r="0.94" fill="#fbcfe8" opacity="0.70" class="c60f20e958-tw" style="animation-duration:2.8s;animation-delay:3.2s" />
<circle cx="157.59" cy="641.8" r="1.63" fill="#fbcfe8" opacity="0.41" />
<circle cx="838.57" cy="753.87" r="1.78" fill="#fdf4ff" opacity="0.64" class="c60f20e958-tw" style="animation-duration:3.8s;animation-delay:1.1s" />
<circle cx="42.92" cy="644.86" r="0.78" fill="#fdf4ff" opacity="0.78" class="c60f20e958-tw" style="animation-duration:3.7s;animation-delay:3.6s" />
<circle cx="806.4" cy="732.2" r="1.98" fill="#fbcfe8" opacity="0.85" class="c60f20e958-tw" style="animation-duration:2.9s;animation-delay:3.0s" />
<circle cx="1193.33" cy="602.93" r="1.27" fill="#fbcfe8" opacity="0.59" class="c60f20e958-tw" style="animation-duration:3.3s;animation-delay:3.8s" />
<circle cx="502.88" cy="84.14" r="1.60" fill="#c4b5fd" opacity="0.56" class="c60f20e958-tw" style="animation-duration:2.9s;animation-delay:1.4s" />
<circle cx="1061.06" cy="124.88" r="2.23" fill="#a5f3fc" opacity="0.80" />
<circle cx="414.24" cy="353.33" r="0.95" fill="#a5f3fc" opacity="0.69" />
<circle cx="1047.95" cy="372.71" r="0.82" fill="#c4b5fd" opacity="0.51" class="c60f20e958-tw" style="animation-duration:2.5s;animation-delay:0.5s" />
<circle cx="707.21" cy="23.07" r="1.21" fill="#fbcfe8" opacity="0.46" />
<circle cx="229.12" cy="128.9" r="1.31" fill="#c4b5fd" opacity="0.44" class="c60f20e958-tw" style="animation-duration:2.7s;animation-delay:1.4s" />
<circle cx="207.72" cy="381.67" r="0.97" fill="#fdf4ff" opacity="0.60" class="c60f20e958-tw" style="animation-duration:3.4s;animation-delay:3.5s" />
<circle cx="951.12" cy="182.91" r="0.64" fill="#a5f3fc" opacity="0.43" class="c60f20e958-tw" style="animation-duration:3.7s;animation-delay:2.3s" />
<circle cx="710.6" cy="17.45" r="1.41" fill="#a5f3fc" opacity="0.87" />
<circle cx="838.48" cy="512.67" r="0.86" fill="#a5f3fc" opacity="0.59" class="c60f20e958-tw" style="animation-duration:3.7s;animation-delay:2.3s" />
<circle cx="5.44" cy="16.02" r="0.78" fill="#fdf4ff" opacity="0.49" />
<circle cx="260.98" cy="651.04" r="0.51" fill="#a5f3fc" opacity="0.41" />
<circle cx="516.67" cy="751.17" r="0.80" fill="#fbcfe8" opacity="0.67" />
<circle cx="415.47" cy="661.36" r="0.83" fill="#fdf4ff" opacity="0.72" />
<circle cx="11.57" cy="240.38" r="1.70" fill="#a5f3fc" opacity="0.88" class="c60f20e958-tw" style="animation-duration:2.7s;animation-delay:1.5s" />
<circle cx="728.64" cy="755.82" r="0.96" fill="#c4b5fd" opacity="0.38" class="c60f20e958-tw" style="animation-duration:2.2s;animation-delay:2.2s" />
<circle cx="985.68" cy="165.92" r="1.43" fill="#a5f3fc" opacity="0.46" />
<circle cx="75.64" cy="137.8" r="1.90" fill="#a5f3fc" opacity="0.66" class="c60f20e958-tw" style="animation-duration:3.4s;animation-delay:0.3s" />
<circle cx="274.24" cy="507.17" r="1.74" fill="#fdf4ff" opacity="0.56" />
<circle cx="92.81" cy="112.22" r="1.78" fill="#fbcfe8" opacity="0.78" />
<circle cx="1054.21" cy="617.73" r="0.61" fill="#c4b5fd" opacity="0.83" />
<circle cx="1092.42" cy="628.37" r="0.52" fill="#c4b5fd" opacity="0.62" class="c60f20e958-tw" style="animation-duration:3.9s;animation-delay:0.3s" />
<circle cx="696.44" cy="452.96" r="1.83" fill="#fbcfe8" opacity="0.65" class="c60f20e958-tw" style="animation-duration:2.4s;animation-delay:0.9s" />
<circle cx="728.76" cy="470.7" r="0.59" fill="#a5f3fc" opacity="0.80" />
<circle cx="598.69" cy="363.61" r="0.88" fill="#fdf4ff" opacity="0.76" />
<circle cx="914.71" cy="151.65" r="0.91" fill="#a5f3fc" opacity="0.43" />
<circle cx="12.59" cy="696.61" r="0.85" fill="#a5f3fc" opacity="0.49" />
<circle cx="1022.12" cy="188.42" r="0.81" fill="#a5f3fc" opacity="0.40" class="c60f20e958-tw" style="animation-duration:2.1s;animation-delay:0.8s" />
<circle cx="1195.32" cy="227.73" r="1.36" fill="#fdf4ff" opacity="0.81" />
<circle cx="8.86" cy="674.92" r="0.97" fill="#c4b5fd" opacity="0.82" />
<circle cx="241.56" cy="157.1" r="1.19" fill="#a5f3fc" opacity="0.45" class="c60f20e958-tw" style="animation-duration:3.0s;animation-delay:2.8s" />
<circle cx="520.1" cy="479.01" r="0.57" fill="#fdf4ff" opacity="0.61" />
<circle cx="309.08" cy="754.07" r="0.84" fill="#fbcfe8" opacity="0.48" class="c60f20e958-tw" style="animation-duration:2.8s;animation-delay:0.0s" />
<circle cx="1065.25" cy="111.59" r="0.59" fill="#fbcfe8" opacity="0.46" />
<circle cx="568.31" cy="310.69" r="1.33" fill="#fdf4ff" opacity="0.38" class="c60f20e958-tw" style="animation-duration:3.6s;animation-delay:1.4s" />
<circle cx="381.21" cy="328.28" r="1.09" fill="#a5f3fc" opacity="0.71" class="c60f20e958-tw" style="animation-duration:1.9s;animation-delay:2.4s" />
<circle cx="1105.89" cy="757.02" r="1.99" fill="#c4b5fd" opacity="0.53" class="c60f20e958-tw" style="animation-duration:3.5s;animation-delay:0.8s" />
<circle cx="483.98" cy="530.55" r="1.26" fill="#c4b5fd" opacity="0.78" class="c60f20e958-tw" style="animation-duration:2.0s;animation-delay:3.5s" />
<circle cx="1163" cy="406.08" r="1.23" fill="#fbcfe8" opacity="0.79" />
<circle cx="287.35" cy="169.16" r="1.12" fill="#fbcfe8" opacity="0.66" />
<circle cx="1135.44" cy="155.07" r="1.19" fill="#a5f3fc" opacity="0.65" />
<circle cx="274.07" cy="455.76" r="0.82" fill="#a5f3fc" opacity="0.61" />
<circle cx="851.13" cy="169.35" r="1.32" fill="#a5f3fc" opacity="0.46" class="c60f20e958-tw" style="animation-duration:2.6s;animation-delay:0.5s" />
<circle cx="486.02" cy="574.05" r="0.74" fill="#a5f3fc" opacity="0.88" class="c60f20e958-tw" style="animation-duration:1.9s;animation-delay:2.7s" />
<circle cx="493.46" cy="687.04" r="1.29" fill="#a5f3fc" opacity="0.66" class="c60f20e958-tw" style="animation-duration:2.5s;animation-delay:3.1s" />
<circle cx="848.51" cy="614.56" r="1.38" fill="#a5f3fc" opacity="0.68" class="c60f20e958-tw" style="animation-duration:3.1s;animation-delay:2.5s" />
<circle cx="1140.21" cy="184.43" r="1.09" fill="#c4b5fd" opacity="0.71" />
<circle cx="842.19" cy="295.5" r="1.16" fill="#fbcfe8" opacity="0.86" />
<circle cx="953.61" cy="508.12" r="1.94" fill="#fdf4ff" opacity="0.44" class="c60f20e958-tw" style="animation-duration:2.1s;animation-delay:1.0s" />
<circle cx="949.88" cy="55.98" r="1.27" fill="#fbcfe8" opacity="0.41" />
<circle cx="602.03" cy="423.82" r="1.52" fill="#c4b5fd" opacity="0.69" class="c60f20e958-tw" style="animation-duration:4.1s;animation-delay:2.9s" />
<circle cx="830.21" cy="155.45" r="1.03" fill="#fbcfe8" opacity="0.52" class="c60f20e958-tw" style="animation-duration:2.9s;animation-delay:2.4s" />
<circle cx="991.74" cy="423.87" r="1.44" fill="#c4b5fd" opacity="0.45" class="c60f20e958-tw" style="animation-duration:3.3s;animation-delay:3.9s" />
<circle cx="596.7" cy="230.19" r="2.00" fill="#fdf4ff" opacity="0.78" class="c60f20e958-tw" style="animation-duration:3.9s;animation-delay:2.7s" />
<circle cx="547.28" cy="310.31" r="0.85" fill="#fdf4ff" opacity="0.63" class="c60f20e958-tw" style="animation-duration:2.6s;animation-delay:1.3s" />
<circle cx="511.11" cy="573.54" r="0.59" fill="#fdf4ff" opacity="0.69" />
<circle cx="593.66" cy="83.79" r="1.52" fill="#a5f3fc" opacity="0.87" class="c60f20e958-tw" style="animation-duration:2.0s;animation-delay:1.9s" />
<circle cx="575.05" cy="646.57" r="0.88" fill="#fbcfe8" opacity="0.44" />
<circle cx="130" cy="522.02" r="1.29" fill="#a5f3fc" opacity="0.45" class="c60f20e958-tw" style="animation-duration:3.4s;animation-delay:3.2s" />
<circle cx="624.2" cy="363.14" r="1.29" fill="#fbcfe8" opacity="0.83" />
<circle cx="829.89" cy="666.42" r="2.25" fill="#a5f3fc" opacity="0.46" class="c60f20e958-tw" style="animation-duration:3.9s;animation-delay:3.3s" />
<circle cx="162.77" cy="231.43" r="0.82" fill="#fbcfe8" opacity="0.54" />
<circle cx="602.96" cy="251.33" r="1.13" fill="#fdf4ff" opacity="0.48" class="c60f20e958-tw" style="animation-duration:2.2s;animation-delay:0.9s" />
<circle cx="729.76" cy="23.36" r="0.93" fill="#fdf4ff" opacity="0.69" />
<circle cx="1030.46" cy="479.44" r="0.87" fill="#c4b5fd" opacity="0.47" class="c60f20e958-tw" style="animation-duration:4.0s;animation-delay:1.9s" />
<circle cx="198.65" cy="537.83" r="2.16" fill="#c4b5fd" opacity="0.52" />
<circle cx="516.37" cy="113.41" r="1.77" fill="#fdf4ff" opacity="0.86" />
<circle cx="828.75" cy="41.02" r="1.29" fill="#fdf4ff" opacity="0.46" />
<circle cx="34.82" cy="304.44" r="0.96" fill="#a5f3fc" opacity="0.69" />
<circle cx="164.66" cy="166.13" r="0.64" fill="#fbcfe8" opacity="0.80" />
<circle cx="322.73" cy="410.6" r="0.36" fill="#fdf4ff" opacity="0.81" class="c60f20e958-tw" style="animation-duration:3.9s;animation-delay:3.9s" />
<circle cx="941.5" cy="162.85" r="0.42" fill="#fbcfe8" opacity="0.74" />
<circle cx="530.88" cy="434.19" r="1.96" fill="#a5f3fc" opacity="0.89" class="c60f20e958-tw" style="animation-duration:4.3s;animation-delay:0.1s" />
<circle cx="1017.93" cy="178.27" r="1.13" fill="#a5f3fc" opacity="0.68" class="c60f20e958-tw" style="animation-duration:2.0s;animation-delay:1.4s" />
<circle cx="483.26" cy="12.85" r="0.63" fill="#a5f3fc" opacity="0.60" />
<circle cx="362.67" cy="484.31" r="1.05" fill="#c4b5fd" opacity="0.87" />
<circle cx="981.51" cy="721.98" r="0.89" fill="#c4b5fd" opacity="0.40" />
<circle cx="87.19" cy="281.58" r="1.07" fill="#c4b5fd" opacity="0.70" class="c60f20e958-tw" style="animation-duration:2.9s;animation-delay:1.6s" />
<circle cx="666.95" cy="306.74" r="1.22" fill="#a5f3fc" opacity="0.86" class="c60f20e958-tw" style="animation-duration:4.0s;animation-delay:2.9s" />
<circle cx="890.22" cy="219.87" r="1.74" fill="#fdf4ff" opacity="0.86" class="c60f20e958-tw" style="animation-duration:2.7s;animation-delay:0.2s" />
<circle cx="824.61" cy="395.36" r="0.83" fill="#a5f3fc" opacity="0.53" class="c60f20e958-tw" style="animation-duration:3.1s;animation-delay:1.5s" />
<circle cx="1148.05" cy="149.44" r="1.60" fill="#c4b5fd" opacity="0.63" class="c60f20e958-tw" style="animation-duration:3.9s;animation-delay:0.8s" />
<circle cx="362.84" cy="73.07" r="0.96" fill="#c4b5fd" opacity="0.76" class="c60f20e958-tw" style="animation-duration:3.3s;animation-delay:0.8s" />
<circle cx="889.12" cy="252.97" r="1.11" fill="#c4b5fd" opacity="0.52" class="c60f20e958-tw" style="animation-duration:2.6s;animation-delay:0.1s" />
<circle cx="1159.75" cy="448.41" r="1.40" fill="#a5f3fc" opacity="0.87" class="c60f20e958-tw" style="animation-duration:3.2s;animation-delay:1.2s" />
<circle cx="114.99" cy="704.83" r="0.87" fill="#a5f3fc" opacity="0.88" class="c60f20e958-tw" style="animation-duration:3.9s;animation-delay:0.9s" />
<circle cx="778.54" cy="573.88" r="1.27" fill="#a5f3fc" opacity="0.40" />
<circle cx="323.06" cy="12.07" r="2.01" fill="#c4b5fd" opacity="0.58" />
<circle cx="278.37" cy="356.3" r="0.60" fill="#fdf4ff" opacity="0.74" />
<circle cx="876.58" cy="702.29" r="1.12" fill="#c4b5fd" opacity="0.49" class="c60f20e958-tw" style="animation-duration:2.8s;animation-delay:3.8s" />
<circle cx="301.89" cy="133.98" r="0.97" fill="#a5f3fc" opacity="0.84" class="c60f20e958-tw" style="animation-duration:3.1s;animation-delay:1.6s" />
<circle cx="512.73" cy="645.34" r="1.60" fill="#c4b5fd" opacity="0.67" />
<circle cx="374.54" cy="158.29" r="1.27" fill="#c4b5fd" opacity="0.69" class="c60f20e958-tw" style="animation-duration:2.0s;animation-delay:2.1s" />
<circle cx="675.24" cy="62.32" r="0.78" fill="#c4b5fd" opacity="0.84" />
<circle cx="812.85" cy="639.83" r="1.04" fill="#c4b5fd" opacity="0.64" class="c60f20e958-tw" style="animation-duration:3.0s;animation-delay:1.0s" />
<circle cx="1087.42" cy="737.16" r="0.76" fill="#fdf4ff" opacity="0.75" class="c60f20e958-tw" style="animation-duration:4.0s;animation-delay:2.2s" />
<circle cx="563.22" cy="173.9" r="1.22" fill="#a5f3fc" opacity="0.43" />
<circle cx="539.93" cy="451.47" r="1.19" fill="#fbcfe8" opacity="0.52" class="c60f20e958-tw" style="animation-duration:2.8s;animation-delay:1.4s" />
<circle cx="133.87" cy="682.64" r="0.95" fill="#a5f3fc" opacity="0.78" class="c60f20e958-tw" style="animation-duration:3.1s;animation-delay:3.2s" />
<circle cx="1011.97" cy="642.28" r="1.88" fill="#a5f3fc" opacity="0.65" />
<circle cx="244.8" cy="50.52" r="0.92" fill="#c4b5fd" opacity="0.50" />
<circle cx="53.15" cy="421.32" r="0.85" fill="#c4b5fd" opacity="0.49" class="c60f20e958-tw" style="animation-duration:2.9s;animation-delay:3.3s" />
<circle cx="68.99" cy="234.88" r="0.89" fill="#fdf4ff" opacity="0.49" />
<circle cx="418.39" cy="249.63" r="1.34" fill="#a5f3fc" opacity="0.78" class="c60f20e958-tw" style="animation-duration:3.1s;animation-delay:2.4s" />
<circle cx="973.65" cy="478.23" r="0.72" fill="#fbcfe8" opacity="0.56" class="c60f20e958-tw" style="animation-duration:2.8s;animation-delay:1.4s" />
<circle cx="1163.18" cy="209.13" r="0.58" fill="#fbcfe8" opacity="0.48" />
<circle cx="374.65" cy="486" r="1.20" fill="#c4b5fd" opacity="0.81" class="c60f20e958-tw" style="animation-duration:3.4s;animation-delay:3.6s" />
<circle cx="1137.91" cy="162.89" r="1.83" fill="#fbcfe8" opacity="0.69" class="c60f20e958-tw" style="animation-duration:2.3s;animation-delay:3.8s" />
<circle cx="869.33" cy="638.87" r="0.77" fill="#fdf4ff" opacity="0.39" />
<circle cx="435.88" cy="96.52" r="0.70" fill="#a5f3fc" opacity="0.88" class="c60f20e958-tw" style="animation-duration:3.4s;animation-delay:3.4s" />
<circle cx="950.69" cy="262.12" r="0.76" fill="#fbcfe8" opacity="0.38" />
<circle cx="23.05" cy="30.29" r="1.40" fill="#a5f3fc" opacity="0.69" class="c60f20e958-tw" style="animation-duration:2.8s;animation-delay:3.5s" />
<circle cx="853.01" cy="655.05" r="1.52" fill="#fbcfe8" opacity="0.89" />
<circle cx="482.75" cy="752.41" r="2.21" fill="#fbcfe8" opacity="0.85" />
<circle cx="346.71" cy="351.18" r="0.65" fill="#fbcfe8" opacity="0.76" class="c60f20e958-tw" style="animation-duration:3.9s;animation-delay:3.6s" />
<circle cx="1180.74" cy="321.43" r="1.39" fill="#c4b5fd" opacity="0.63" class="c60f20e958-tw" style="animation-duration:2.2s;animation-delay:1.6s" />
<circle cx="156.52" cy="312.61" r="1.32" fill="#c4b5fd" opacity="0.69" class="c60f20e958-tw" style="animation-duration:2.4s;animation-delay:1.4s" />
<circle cx="134.23" cy="349.83" r="1.11" fill="#a5f3fc" opacity="0.75" class="c60f20e958-tw" style="animation-duration:3.9s;animation-delay:2.5s" />
<circle cx="1025.22" cy="193.72" r="1.61" fill="#c4b5fd" opacity="0.72" class="c60f20e958-tw" style="animation-duration:3.2s;animation-delay:0.8s" />
<circle cx="103.5" cy="737.92" r="0.53" fill="#fbcfe8" opacity="0.70" class="c60f20e958-tw" style="animation-duration:4.2s;animation-delay:0.5s" />
<circle cx="41.31" cy="555.14" r="0.65" fill="#c4b5fd" opacity="0.39" />
<circle cx="506.22" cy="143.11" r="1.09" fill="#a5f3fc" opacity="0.41" />
<circle cx="536.75" cy="591.31" r="1.69" fill="#fdf4ff" opacity="0.57" class="c60f20e958-tw" style="animation-duration:2.7s;animation-delay:2.3s" />
<circle cx="1090.84" cy="11.21" r="1.61" fill="#fbcfe8" opacity="0.50" />
<circle cx="377.48" cy="54.08" r="0.55" fill="#fdf4ff" opacity="0.52" />
<circle cx="1114.06" cy="8.65" r="0.47" fill="#a5f3fc" opacity="0.48" />
<circle cx="817.41" cy="171.4" r="1.51" fill="#a5f3fc" opacity="0.70" />
<circle cx="465.06" cy="535.61" r="1.19" fill="#a5f3fc" opacity="0.39" class="c60f20e958-tw" style="animation-duration:1.8s;animation-delay:0.7s" />
<circle cx="215.84" cy="749.99" r="0.97" fill="#c4b5fd" opacity="0.42" />
<circle cx="66.25" cy="515.51" r="0.99" fill="#fdf4ff" opacity="0.44" class="c60f20e958-tw" style="animation-duration:4.2s;animation-delay:2.8s" />
<circle cx="673.31" cy="595.45" r="0.85" fill="#fbcfe8" opacity="0.70" />
<circle cx="1165.73" cy="283.81" r="0.71" fill="#fbcfe8" opacity="0.43" />
<circle cx="1121.05" cy="369.52" r="1.39" fill="#c4b5fd" opacity="0.60" class="c60f20e958-tw" style="animation-duration:2.7s;animation-delay:1.3s" />
<circle cx="181.04" cy="672.54" r="0.80" fill="#c4b5fd" opacity="0.58" class="c60f20e958-tw" style="animation-duration:3.0s;animation-delay:2.9s" />
<circle cx="435.43" cy="577.27" r="1.16" fill="#fdf4ff" opacity="0.80" />
<circle cx="818.13" cy="461.86" r="0.93" fill="#fdf4ff" opacity="0.80" />
<circle cx="892.13" cy="690.9" r="1.57" fill="#a5f3fc" opacity="0.51" />
<circle cx="880.87" cy="559.37" r="0.80" fill="#a5f3fc" opacity="0.48" />
<circle cx="96.63" cy="383.22" r="1.34" fill="#fdf4ff" opacity="0.66" />
<circle cx="601.93" cy="375.86" r="2.10" fill="#a5f3fc" opacity="0.84" />
<circle cx="1142.88" cy="198.91" r="1.52" fill="#c4b5fd" opacity="0.49" class="c60f20e958-tw" style="animation-duration:3.1s;animation-delay:1.2s" />
<circle cx="669.71" cy="74.88" r="1.75" fill="#a5f3fc" opacity="0.67" />
<circle cx="1143.99" cy="126.13" r="1.76" fill="#fbcfe8" opacity="0.82" />
<circle cx="583.8" cy="199.02" r="1.03" fill="#fbcfe8" opacity="0.81" />
<circle cx="907.03" cy="199.73" r="0.95" fill="#fbcfe8" opacity="0.89" />
<circle cx="702.36" cy="113.95" r="1.97" fill="#c4b5fd" opacity="0.53" />
<circle cx="36.01" cy="147.66" r="1.04" fill="#fbcfe8" opacity="0.68" />
<circle cx="197.55" cy="516.81" r="0.69" fill="#a5f3fc" opacity="0.84" class="c60f20e958-tw" style="animation-duration:3.3s;animation-delay:1.8s" />
<circle cx="776.96" cy="43.18" r="1.09" fill="#fbcfe8" opacity="0.84" />
<circle cx="72.12" cy="514.7" r="1.07" fill="#fdf4ff" opacity="0.51" />
<circle cx="62.12" cy="363.94" r="1.31" fill="#c4b5fd" opacity="0.81" />
<circle cx="409.29" cy="678.7" r="1.58" fill="#c4b5fd" opacity="0.46" />
<circle cx="1001.23" cy="157.67" r="1.02" fill="#a5f3fc" opacity="0.65" class="c60f20e958-tw" style="animation-duration:3.6s;animation-delay:0.4s" />
<circle cx="862.48" cy="600.27" r="0.66" fill="#fdf4ff" opacity="0.52" class="c60f20e958-tw" style="animation-duration:3.2s;animation-delay:2.4s" />
<circle cx="769.15" cy="684.74" r="1.64" fill="#fbcfe8" opacity="0.55" />
<circle cx="418.17" cy="231.19" r="1.53" fill="#c4b5fd" opacity="0.76" />
<circle cx="288.39" cy="166.06" r="0.62" fill="#fbcfe8" opacity="0.67" class="c60f20e958-tw" style="animation-duration:3.1s;animation-delay:0.7s" />
<circle cx="1080.58" cy="457.38" r="1.70" fill="#fdf4ff" opacity="0.56" class="c60f20e958-tw" style="animation-duration:4.0s;animation-delay:3.7s" />
<circle cx="46.77" cy="313.14" r="1.09" fill="#fbcfe8" opacity="0.70" class="c60f20e958-tw" style="animation-duration:2.4s;animation-delay:3.7s" />
<circle cx="94.45" cy="10.1" r="1.23" fill="#fbcfe8" opacity="0.69" class="c60f20e958-tw" style="animation-duration:3.1s;animation-delay:1.9s" />
<circle cx="839.54" cy="750.07" r="1.28" fill="#fdf4ff" opacity="0.73" />
<circle cx="59.23" cy="195.76" r="1.17" fill="#fdf4ff" opacity="0.61" class="c60f20e958-tw" style="animation-duration:4.1s;animation-delay:2.2s" />
<circle cx="1138.1" cy="39.3" r="1.27" fill="#fbcfe8" opacity="0.49" class="c60f20e958-tw" style="animation-duration:3.9s;animation-delay:3.8s" />
<circle cx="218.67" cy="615.42" r="1.59" fill="#a5f3fc" opacity="0.82" class="c60f20e958-tw" style="animation-duration:3.6s;animation-delay:3.4s" />
<circle cx="159.25" cy="353.89" r="0.50" fill="#fbcfe8" opacity="0.44" />
<circle cx="857.37" cy="321.63" r="2.06" fill="#a5f3fc" opacity="0.70" class="c60f20e958-tw" style="animation-duration:2.9s;animation-delay:1.9s" />
<circle cx="1176.21" cy="8.88" r="0.90" fill="#fbcfe8" opacity="0.56" class="c60f20e958-tw" style="animation-duration:2.8s;animation-delay:1.6s" />
<circle cx="471.54" cy="351.82" r="1.42" fill="#a5f3fc" opacity="0.77" />
<circle cx="449.53" cy="389.62" r="0.87" fill="#c4b5fd" opacity="0.41" />
<circle cx="811.99" cy="600.27" r="0.64" fill="#fbcfe8" opacity="0.38" class="c60f20e958-tw" style="animation-duration:2.1s;animation-delay:3.8s" />
<circle cx="60.73" cy="658.28" r="1.31" fill="#c4b5fd" opacity="0.81" class="c60f20e958-tw" style="animation-duration:2.5s;animation-delay:2.0s" />
<circle cx="1077.87" cy="86.97" r="0.86" fill="#fdf4ff" opacity="0.88" />
<circle cx="310" cy="666.22" r="0.85" fill="#a5f3fc" opacity="0.59" class="c60f20e958-tw" style="animation-duration:2.1s;animation-delay:1.4s" />
<circle cx="1019.75" cy="276.85" r="0.79" fill="#fdf4ff" opacity="0.76" class="c60f20e958-tw" style="animation-duration:4.1s;animation-delay:3.4s" />
<circle cx="187.22" cy="525.11" r="0.55" fill="#a5f3fc" opacity="0.72" />
<circle cx="793.37" cy="485.64" r="1.50" fill="#c4b5fd" opacity="0.86" />
<circle cx="1075.79" cy="677.27" r="1.97" fill="#a5f3fc" opacity="0.59" class="c60f20e958-tw" style="animation-duration:3.3s;animation-delay:0.9s" />
<circle cx="932.66" cy="102.62" r="1.33" fill="#a5f3fc" opacity="0.50" class="c60f20e958-tw" style="animation-duration:2.7s;animation-delay:0.8s" />
<circle cx="190.06" cy="520.17" r="1.58" fill="#fbcfe8" opacity="0.69" />
<circle cx="402.69" cy="104.26" r="1.83" fill="#c4b5fd" opacity="0.45" />
<circle cx="6.18" cy="401.04" r="0.83" fill="#fdf4ff" opacity="0.64" class="c60f20e958-tw" style="animation-duration:2.2s;animation-delay:0.7s" />
<circle cx="132.79" cy="6.51" r="0.57" fill="#a5f3fc" opacity="0.88" />
<circle cx="501.74" cy="680.44" r="2.13" fill="#fbcfe8" opacity="0.71" />
<circle cx="75.43" cy="181.88" r="1.94" fill="#c4b5fd" opacity="0.78" />
<circle cx="1138.62" cy="506.82" r="1.42" fill="#a5f3fc" opacity="0.59" class="c60f20e958-tw" style="animation-duration:3.1s;animation-delay:3.4s" />
<circle cx="76.6" cy="477.78" r="1.33" fill="#c4b5fd" opacity="0.56" />
<circle cx="267.21" cy="338.53" r="0.64" fill="#a5f3fc" opacity="0.64" class="c60f20e958-tw" style="animation-duration:3.8s;animation-delay:1.6s" />
<circle cx="209.44" cy="552.84" r="1.05" fill="#c4b5fd" opacity="0.75" class="c60f20e958-tw" style="animation-duration:1.9s;animation-delay:3.8s" />
<circle cx="1004.43" cy="413.48" r="1.25" fill="#fdf4ff" opacity="0.78" />
<circle cx="521.36" cy="45.17" r="0.75" fill="#fbcfe8" opacity="0.38" class="c60f20e958-tw" style="animation-duration:4.0s;animation-delay:1.4s" />
<circle cx="616.06" cy="257.47" r="1.22" fill="#a5f3fc" opacity="0.81" class="c60f20e958-tw" style="animation-duration:3.4s;animation-delay:0.8s" />
<circle cx="792.84" cy="110.83" r="1.07" fill="#fbcfe8" opacity="0.80" />
<circle cx="1005.03" cy="227.31" r="1.45" fill="#fbcfe8" opacity="0.57" />
<circle cx="273.39" cy="671.62" r="1.34" fill="#fdf4ff" opacity="0.81" class="c60f20e958-tw" style="animation-duration:4.1s;animation-delay:0.4s" />
<circle cx="675.8" cy="464.58" r="1.28" fill="#fdf4ff" opacity="0.50" />
<circle cx="488.95" cy="216.91" r="1.73" fill="#fbcfe8" opacity="0.86" />
<circle cx="119.99" cy="148.11" r="0.58" fill="#fdf4ff" opacity="0.78" />
<circle cx="90.37" cy="572.11" r="1.08" fill="#c4b5fd" opacity="0.44" />
<circle cx="145.89" cy="211.5" r="1.54" fill="#fbcfe8" opacity="0.47" />
<circle cx="1153.28" cy="207.93" r="1.46" fill="#a5f3fc" opacity="0.50" />
<circle cx="110.11" cy="193.51" r="0.76" fill="#fdf4ff" opacity="0.40" />
<circle cx="460.35" cy="434.9" r="2.18" fill="#fbcfe8" opacity="0.38" />
<circle cx="1135.17" cy="679.57" r="1.73" fill="#c4b5fd" opacity="0.51" />
<circle cx="40.4" cy="473.13" r="0.68" fill="#a5f3fc" opacity="0.59" class="c60f20e958-tw" style="animation-duration:1.9s;animation-delay:1.7s" />
<circle cx="64.25" cy="630.79" r="0.59" fill="#a5f3fc" opacity="0.41" class="c60f20e958-tw" style="animation-duration:4.5s;animation-delay:2.9s" />
<circle cx="365.05" cy="173.22" r="1.03" fill="#a5f3fc" opacity="0.74" class="c60f20e958-tw" style="animation-duration:3.6s;animation-delay:2.8s" />
<circle cx="853.71" cy="478.06" r="1.57" fill="#fbcfe8" opacity="0.57" class="c60f20e958-tw" style="animation-duration:2.2s;animation-delay:1.9s" />
<circle cx="244.05" cy="171.52" r="0.94" fill="#a5f3fc" opacity="0.61" />
<circle cx="510.94" cy="38.64" r="1.04" fill="#fdf4ff" opacity="0.50" />
<circle cx="1059.22" cy="603.79" r="1.18" fill="#fbcfe8" opacity="0.68" />
<circle cx="855.01" cy="747.59" r="1.90" fill="#fbcfe8" opacity="0.64" class="c60f20e958-tw" style="animation-duration:2.8s;animation-delay:3.0s" />
<circle cx="505.77" cy="241.3" r="1.60" fill="#fbcfe8" opacity="0.88" class="c60f20e958-tw" style="animation-duration:1.9s;animation-delay:3.6s" />
<circle cx="842.55" cy="698.38" r="0.67" fill="#c4b5fd" opacity="0.58" />
<circle cx="511.85" cy="658.89" r="0.56" fill="#a5f3fc" opacity="0.73" />
<circle cx="1165.57" cy="84.26" r="1.73" fill="#c4b5fd" opacity="0.83" class="c60f20e958-tw" style="animation-duration:3.1s;animation-delay:1.2s" />
<circle cx="46.4" cy="650.8" r="1.35" fill="#fdf4ff" opacity="0.89" class="c60f20e958-tw" style="animation-duration:4.1s;animation-delay:0.9s" />
<circle cx="972.86" cy="655.89" r="1.59" fill="#a5f3fc" opacity="0.47" />
<circle cx="131" cy="524.61" r="1.48" fill="#a5f3fc" opacity="0.74" />
<circle cx="704.96" cy="1.11" r="0.69" fill="#c4b5fd" opacity="0.48" class="c60f20e958-tw" style="animation-duration:4.4s;animation-delay:2.1s" />
<circle cx="488.01" cy="476.78" r="2.09" fill="#fbcfe8" opacity="0.40" class="c60f20e958-tw" style="animation-duration:2.4s;animation-delay:3.2s" />
<circle cx="577.28" cy="531.59" r="1.03" fill="#fdf4ff" opacity="0.51" class="c60f20e958-tw" style="animation-duration:3.3s;animation-delay:2.9s" />
<circle cx="983.07" cy="675.68" r="1.07" fill="#a5f3fc" opacity="0.62" />
<circle cx="1155.38" cy="342.2" r="2.22" fill="#fbcfe8" opacity="0.52" class="c60f20e958-tw" style="animation-duration:3.3s;animation-delay:3.8s" />
<circle cx="381.17" cy="631.98" r="0.86" fill="#fdf4ff" opacity="0.64" class="c60f20e958-tw" style="animation-duration:4.2s;animation-delay:1.4s" />
<circle cx="227.39" cy="605.59" r="0.93" fill="#fdf4ff" opacity="0.69" />
<circle cx="991.77" cy="395.73" r="1.08" fill="#fbcfe8" opacity="0.87" class="c60f20e958-tw" style="animation-duration:2.0s;animation-delay:2.1s" />
<circle cx="24.45" cy="185.98" r="0.88" fill="#a5f3fc" opacity="0.59" />
</g>
<g fill="none" stroke-linecap="round" stroke-linejoin="round" opacity="0.42">
<path d="M 1143.99 126.13 L 857.37 321.63 L 890.22 219.87 L 488.95 216.91 L 404.8 193.35 L 806.4 732.2" stroke="#f000b8" stroke-width="1.4" />
<path d="M 793.37 485.64 L 501.74 680.44 L 710.6 17.45 L 92.81 112.22 L 1159.75 448.41 L 75.43 181.88" stroke="#22d3ee" stroke-width="1.4" />
<path d="M 133.84 640.92 L 113.56 137.6 L 1165.57 84.26 L 596.7 230.19 L 482.75 752.41 L 853.01 655.05" stroke="#fde047" stroke-width="1.4" />
<path d="M 300.71 664 L 75.64 137.8 L 366.25 86.14 L 593.66 83.79 L 601.93 375.86 L 1061.06 124.88" stroke="#f000b8" stroke-width="1.4" />
</g>
<g filter="url(#c60f20e958-glow)">
<g><animateTransform attributeName="transform" type="rotate" from="0 756.78 335.28" to="360 756.78 335.28" dur="60s" repeatCount="indefinite" additive="sum" /><circle cx="464.89" cy="326.27" r="33.93" fill="#f000b8" opacity="0.96" /><circle cx="455.39" cy="317.79" r="12.89" fill="#ffffff" opacity="0.18" /><path d="M 430.96 350.7 C 458.1 365.29, 490.33 358.5, 498.81 322.88" fill="none" stroke="#2a0b3d" stroke-width="4.1" opacity="0.24" /><ellipse cx="464.89" cy="326.27" rx="59.37" ry="12.89" fill="none" stroke="#22d3ee" stroke-width="2.7" opacity="0.72" transform="rotate(-3.32 464.89 326.27)" /></g>
<g><animateTransform attributeName="transform" type="rotate" from="0 756.78 335.28" to="-360 756.78 335.28" dur="74s" repeatCount="indefinite" additive="sum" /><circle cx="939.93" cy="271.39" r="26.87" fill="#a855f7" opacity="0.96" /><circle cx="932.41" cy="264.68" r="10.21" fill="#ffffff" opacity="0.18" /><path d="M 913.07 290.74 C 934.56 302.29, 960.08 296.92, 966.8 268.71" fill="none" stroke="#2a0b3d" stroke-width="3.2" opacity="0.24" /></g>
<g><animateTransform attributeName="transform" type="rotate" from="0 756.78 335.28" to="360 756.78 335.28" dur="66s" repeatCount="indefinite" additive="sum" /><circle cx="922.85" cy="403.04" r="25.54" fill="#fde047" opacity="0.96" /><circle cx="915.69" cy="396.66" r="9.71" fill="#ffffff" opacity="0.18" /><path d="M 897.31 421.43 C 917.74 432.41, 942 427.3, 948.39 400.49" fill="none" stroke="#2a0b3d" stroke-width="3.1" opacity="0.24" /><ellipse cx="922.85" cy="403.04" rx="44.7" ry="9.71" fill="none" stroke="#22d3ee" stroke-width="2.0" opacity="0.72" transform="rotate(5.51 922.85 403.04)" /></g>
<g><animateTransform attributeName="transform" type="rotate" from="0 756.78 335.28" to="-360 756.78 335.28" dur="109s" repeatCount="indefinite" additive="sum" /><circle cx="1202.45" cy="297.05" r="24.25" fill="#22d3ee" opacity="0.96" /><circle cx="1195.67" cy="290.99" r="9.21" fill="#ffffff" opacity="0.18" /><path d="M 1178.21 314.51 C 1197.61 324.93, 1220.64 320.08, 1226.7 294.62" fill="none" stroke="#2a0b3d" stroke-width="2.9" opacity="0.24" /></g>
</g>
<g filter="url(#c60f20e958-glow)">
<circle cx="908.9" cy="231.73" r="77.72" fill="#fdf4ff" opacity="0.95" />
<circle cx="936.1" cy="223.96" r="73.83" fill="#2a0b3d" opacity="0.22" />
<circle cx="912.44" cy="234.15" r="3.95" fill="#170b2e" opacity="0.25" />
<circle cx="908.48" cy="234.45" r="4.97" fill="#170b2e" opacity="0.25" />
<circle cx="904.39" cy="240.62" r="13.62" fill="#170b2e" opacity="0.25" />
<circle cx="908.69" cy="223.05" r="6.48" fill="#170b2e" opacity="0.25" />
<circle cx="899.47" cy="223.25" r="10.05" fill="#170b2e" opacity="0.25" />
<circle cx="932.36" cy="185.31" r="7.05" fill="#170b2e" opacity="0.25" />
<circle cx="925.61" cy="227.58" r="6.9" fill="#170b2e" opacity="0.25" />
</g>
<g font-family="Avenir Next, Inter, Segoe UI, sans-serif"><text x="54" y="45.6" fill="#f000b8" font-size="13.8" letter-spacing="3" opacity="0.85">STARWEAVE · THE GILDED HARBOR</text><text x="54" y="691.6" fill="#f8fafc" font-size="52.8" font-weight="800">midnight compiler</text><text x="54" y="721.6" fill="#f000b8" font-size="15.6" opacity="0.88">seed: midnight compiler</text><text x="54" y="743.6" fill="#cbd5e1" font-size="13.8" opacity="0.7" font-style="italic">restless things, drifting over the last harbor</text></g>
</svg>