<?xml version="1.0" encoding="UTF-8"?>
<svg xmlns="http://www.w3.org/2000/svg" width="1200" height="760" viewBox="0 0 1200 760" role="img" aria-label="tidal lock star poster">
<metadata><starweave xmlns="https://github.com/Sebby1770/starweave" data-params="{&quot;animated&quot;: false, &quot;generator&quot;: &quot;starweave 0.2.0&quot;, &quot;planets&quot;: 4, &quot;size&quot;: [1200, 760], &quot;stars&quot;: 300, &quot;world&quot;: {&quot;brightness&quot;: 0.61, &quot;density&quot;: 0.633, &quot;features&quot;: [&quot;comets&quot;, &quot;moon&quot;], &quot;mood&quot;: &quot;glacial&quot;, &quot;name&quot;: &quot;Gamma Lantern&quot;, &quot;palette&quot;: &quot;glacier&quot;, &quot;seed&quot;: &quot;tidal lock&quot;, &quot;turbulence&quot;: 0.244, &quot;variant&quot;: 0}}" /></metadata>
<defs>
<linearGradient id="6bb3f6bea1-space" x1="0%" x2="100%" y1="0%" y2="100%"><stop offset="0%" stop-color="#04141c" /><stop offset="100%" stop-color="#082630" /></linearGradient>
<filter id="6bb3f6bea1-soft" x="-30%" y="-30%" width="160%" height="160%"><feGaussianBlur stdDeviation="24" /></filter>
<filter id="6bb3f6bea1-glow" x="-60%" y="-60%" width="220%" height="220%"><feGaussianBlur stdDeviation="5" result="blur" /><feMerge><feMergeNode in="blur" /><feMergeNode in="SourceGraphic" /></feMerge></filter>
</defs>
<rect width="1200" height="760" fill="url(#6bb3f6bea1-space)" />
<g style="mix-blend-mode: screen">
<ellipse cx="706.31" cy="405.84" rx="211.91" ry="131.99" fill="#22d3ee" opacity="0.17" filter="url(#6bb3f6bea1-soft)" transform="rotate(18.84 706.31 405.84)" />
<ellipse cx="35.58" cy="236.65" rx="256.02" ry="58.61" fill="#22d3ee" opacity="0.20" filter="url(#6bb3f6bea1-soft)" transform="rotate(129.39 35.58 236.65)" />
<ellipse cx="783.33" cy="548.03" rx="228.23" ry="153.83" fill="#a5f3fc" opacity="0.13" filter="url(#6bb3f6bea1-soft)" transform="rotate(89.37 783.33 548.03)" />
<ellipse cx="266.3" cy="237.91" rx="170.43" ry="147.34" fill="#38bdf8" opacity="0.20" filter="url(#6bb3f6bea1-soft)" transform="rotate(2.02 266.3 237.91)" />
<ellipse cx="658.05" cy="471.62" rx="183.61" ry="109.17" fill="#5eead4" opacity="0.12" filter="url(#6bb3f6bea1-soft)" transform="rotate(169.06 658.05 471.62)" />
<ellipse cx="467.62" cy="218.28" rx="252.61" ry="162.69" fill="#a5f3fc" opacity="0.11" filter="url(#6bb3f6bea1-soft)" transform="rotate(51.12 467.62 218.28)" />
<ellipse cx="1143.45" cy="788" rx="118.91" ry="111.75" fill="#5eead4" opacity="0.18" filter="url(#6bb3f6bea1-soft)" transform="rotate(89.4 1143.45 788)" />
<ellipse cx="282.66" cy="-5.27" rx="209.65" ry="112.57" fill="#38bdf8" opacity="0.14" filter="url(#6bb3f6bea1-soft)" transform="rotate(152.08 282.66 -5.27)" />
<ellipse cx="1016.27" cy="737.22" rx="109.63" ry="93.49" fill="#5eead4" opacity="0.16" filter="url(#6bb3f6bea1-soft)" transform="rotate(76.43 1016.27 737.22)" />
<ellipse cx="412.99" cy="133.5" rx="116.94" ry="59.68" fill="#38bdf8" opacity="0.16" filter="url(#6bb3f6bea1-soft)" transform="rotate(82.83 412.99 133.5)" />
<ellipse cx="916.45" cy="739.9" rx="136.16" ry="128.33" fill="#38bdf8" opacity="0.19" filter="url(#6bb3f6bea1-soft)" transform="rotate(152.05 916.45 739.9)" />
</g>
<g fill="none" opacity="0.22">
<ellipse cx="474.61" cy="366.77" rx="210.91" ry="82.71" stroke="#22d3ee" stroke-width="1.2" stroke-dasharray="5.4 20.2" transform="rotate(6.06 474.61 366.77)" />
<ellipse cx="474.61" cy="366.77" rx="321.22" ry="118.76" stroke="#5eead4" stroke-width="1.2" stroke-dasharray="6.4 16.1" transform="rotate(-14.67 474.61 366.77)" />
<ellipse cx="474.61" cy="366.77" rx="358.23" ry="140.47" stroke="#7dd3fc" stroke-width="1.2" stroke-dasharray="9.9 9.7" transform="rotate(13.79 474.61 366.77)" />
<ellipse cx="474.61" cy="366.77" rx="458.26" ry="182.03" stroke="#22d3ee" stroke-width="1.2" stroke-dasharray="7.4 14.0" transform="rotate(-9.06 474.61 366.77)" />
<ellipse cx="474.61" cy="366.77" rx="521.63" ry="206.84" stroke="#5eead4" stroke-width="1.2" stroke-dasharray="9.3 14.9" transform="rotate(-3.09 474.61 366.77)" />
</g>
<g>
<circle cx="402.17" cy="321.18" r="0.96" fill="#f0fdfa" opacity="0.75" />
<circle cx="35.26" cy="442.82" r="0.82" fill="#f0fdfa" opacity="0.45" />
<circle cx="924.5" cy="189.48" r="1.32" fill="#ecfeff" opacity="0.77" />
<circle cx="122.52" cy="195.06" r="1.36" fill="#ecfeff" opacity="0.54" />
<circle cx="1148.57" cy="545.35" r="0.88" fill="#f0fdfa" opacity="0.38" />
<circle cx="812.07" cy="565.12" r="1.18" fill="#e0f2fe" opacity="0.66" />
<circle cx="136.85" cy="263.47" r="1.44" fill="#e0f2fe" opacity="0.79" />
<circle cx="382.92" cy="124.91" r="1.71" fill="#e0f2fe" opacity="0.47" />
<circle cx="1084.22" cy="368.29" r="1.21" fill="#ecfeff" opacity="0.41" />
<circle cx="957.92" cy="134.16" r="1.21" fill="#cffafe" opacity="0.69" />
<circle cx="1187.54" cy="293.1" r="1.40" fill="#ecfeff" opacity="0.56" />
<circle cx="807.74" cy="247.8" r="1.72" fill="#cffafe" opacity="0.71" />
<circle cx="129.33" cy="242.92" r="1.90" fill="#e0f2fe" opacity="0.73" />
<circle cx="35.12" cy="690.42" r="1.80" fill="#e0f2fe" opacity="0.55" />
<circle cx="437.48" cy="420.14" r="0.66" fill="#ecfeff" opacity="0.47" />
<circle cx="360.64" cy="23.64" r="1.07" fill="#cffafe" opacity="0.72" />
<circle cx="257.51" cy="206.66" r="0.91" fill="#cffafe" opacity="0.65" />
<circle cx="662.05" cy="443.98" r="0.80" fill="#e0f2fe" opacity="0.75" />
<circle cx="487.57" cy="555.72" r="0.78" fill="#e0f2fe" opacity="0.50" />
<circle cx="854.18" cy="444.06" r="1.19" fill="#cffafe" opacity="0.58" />
<circle cx="868.43" cy="754.53" r="0.58" fill="#ecfeff" opacity="0.69" />
<circle cx="81.38" cy="483.83" r="1.81" fill="#e0f2fe" opacity="0.63" />
<circle cx="650.68" cy="515.95" r="1.45" fill="#f0fdfa" opacity="0.74" />
<circle cx="894.29" cy="607.12" r="1.27" fill="#f0fdfa" opacity="0.70" />
<circle cx="625.24" cy="223.81" r="0.97" fill="#ecfeff" opacity="0.63" />
<circle cx="278.77" cy="482.39" r="1.26" fill="#f0fdfa" opacity="0.68" />
<circle cx="191.54" cy="394.56" r="1.47" fill="#ecfeff" opacity="0.40" />
<circle cx="43.78" cy="118.99" r="2.24" fill="#cffafe" opacity="0.45" />
<circle cx="451.2" cy="311.48" r="0.44" fill="#ecfeff" opacity="0.41" />
<circle cx="826.68" cy="26.09" r="1.36" fill="#cffafe" opacity="0.74" />
<circle cx="955.65" cy="574.68" r="1.27" fill="#e0f2fe" opacity="0.57" />
<circle cx="857.12" cy="555.71" r="0.90" fill="#cffafe" opacity="0.52" />
<circle cx="931.5" cy="152.51" r="0.81" fill="#cffafe" opacity="0.53" />
<circle cx="464.07" cy="351.43" r="2.07" fill="#ecfeff" opacity="0.42" />
<circle cx="891.91" cy="471.77" r="1.06" fill="#ecfeff" opacity="0.69" />
<circle cx="105.99" cy="565.28" r="1.83" fill="#cffafe" opacity="0.48" />
<circle cx="1185.01" cy="357.92" r="1.66" fill="#f0fdfa" opacity="0.61" />
<circle cx="476.79" cy="394.09" r="1.24" fill="#f0fdfa" opacity="0.57" />
<circle cx="671.62" cy="432.49" r="1.03" fill="#e0f2fe" opacity="0.43" />
<circle cx="873.46" cy="226.68" r="0.98" fill="#ecfeff" opacity="0.73" />
<circle cx="1192.32" cy="375.73" r="1.48" fill="#cffafe" opacity="0.57" />
<circle cx="1082.73" cy="366.68" r="1.35" fill="#e0f2fe" opacity="0.40" />
<circle cx="131.96" cy="130.14" r="0.67" fill="#f0fdfa" opacity="0.43" />
<circle cx="288.88" cy="362.15" r="1.02" fill="#cffafe" opacity="0.51" />
<circle cx="715.95" cy="289.6" r="1.35" fill="#e0f2fe" opacity="0.41" />
<circle cx="912.12" cy="325.01" r="1.52" fill="#cffafe" opacity="0.45" />
<circle cx="875.01" cy="569.23" r="1.51" fill="#e0f2fe" opacity="0.61" />
<circle cx="953.37" cy="459.87" r="0.93" fill="#e0f2fe" opacity="0.59" />
<circle cx="876.47" cy="230.93" r="0.45" fill="#e0f2fe" opacity="0.80" />
<circle cx="539.24" cy="222.18" r="1.45" fill="#cffafe" opacity="0.53" />
<circle cx="500.63" cy="35.68" r="1.11" fill="#e0f2fe" opacity="0.68" />
<circle cx="135.82" cy="157.41" r="1.72" fill="#cffafe" opacity="0.67" />
<circle cx="722.72" cy="386.94" r="1.47" fill="#ecfeff" opacity="0.71" />
<circle cx="804.76" cy="249.11" r="1.05" fill="#ecfeff" opacity="0.79" />
<circle cx="205.58" cy="633.41" r="1.30" fill="#f0fdfa" opacity="0.41" />
<circle cx="1089.19" cy="664.7" r="1.67" fill="#cffafe" opacity="0.72" />
<circle cx="1161.18" cy="487.84" r="1.34" fill="#e0f2fe" opacity="0.39" />
<circle cx="1012.41" cy="742.37" r="0.99" fill="#cffafe" opacity="0.41" />
<circle cx="864.64" cy="457.65" r="0.99" fill="#ecfeff" opacity="0.73" />
<circle cx="1093.74" cy="137.28" r="1.38" fill="#e0f2fe" opacity="0.46" />
<circle cx="955.69" cy="222.73" r="1.16" fill="#cffafe" opacity="0.38" />
<circle cx="123.84" cy="102.61" r="1.26" fill="#f0fdfa" opacity="0.59" />
<circle cx="325.76" cy="712.31" r="1.04" fill="#cffafe" opacity="0.48" />
<circle cx="969.88" cy="218.66" r="0.63" fill="#f0fdfa" opacity="0.58" />
<circle cx="533.97" cy="733.21" r="0.77" fill="#e0f2fe" opacity="0.43" />
<circle cx="684.02" cy="186.08" r="0.92" fill="#f0fdfa" opacity="0.54" />
<circle cx="1103.16" cy="432.8" r="1.11" fill="#cffafe" opacity="0.63" />
<circle cx="413.28" cy="470.35" r="1.74" fill="#ecfeff" opacity="0.41" />
<circle cx="717.32" cy="221.55" r="1.13" fill="#e0f2fe" opacity="0.78" />
<circle cx="546.3" cy="134.73" r="1.49" fill="#cffafe" opacity="0.73" />
<circle cx="73.93" cy="743.69" r="2.20" fill="#f0fdfa" opacity="0.72" />
<circle cx="545.29" cy="243.93" r="0.91" fill="#e0f2fe" opacity="0.38" />
<circle cx="1084.36" cy="136.9" r="1.70" fill="#ecfeff" opacity="0.53" />
<circle cx="434.05" cy="607.29" r="1.25" fill="#e0f2fe" opacity="0.74" />
<circle cx="598.89" cy="551.66" r="0.79" fill="#f0fdfa" opacity="0.42" />
<circle cx="154.51" cy="353.34" r="0.76" fill="#e0f2fe" opacity="0.63" />
<circle cx="805.99" cy="476.3" r="0.75" fill="#ecfeff" opacity="0.56" />
<circle cx="19.21" cy="643.24" r="0.73" fill="#e0f2fe" opacity="0.76" />
<circle cx="814.26" cy="580.37" r="0.74" fill="#f0fdfa" opacity="0.41" />
<circle cx="812.37" cy="67.12" r="0.56" fill="#ecfeff" opacity="0.76" />
<circle cx="285.2" cy="6.8" r="0.75" fill="#cffafe" opacity="0.54" />
<circle cx="770.15" cy="616.97" r="0.60" fill="#e0f2fe" opacity="0.76" />
<circle cx="1186.87" cy="106.57" r="1.22" fill="#ecfeff" opacity="0.52" />
<circle cx="12.85" cy="297.3" r="1.74" fill="#e0f2fe" opacity="0.72" />
<circle cx="644.37" cy="325.84" r="1.74" fill="#e0f2fe" opacity="0.44" />
<circle cx="854.3" cy="24.21" r="2.30" fill="#cffafe" opacity="0.77" />
<circle cx="77.52" cy="386.61" r="1.68" fill="#e0f2fe" opacity="0.81" />
<circle cx="469.34" cy="394.11" r="0.50" fill="#cffafe" opacity="0.56" />
<circle cx="521.43" cy="26.71" r="0.79" fill="#f0fdfa" opacity="0.71" />
<circle cx="295.13" cy="98.87" r="1.65" fill="#ecfeff" opacity="0.80" />
<circle cx="7.62" cy="229.47" r="0.89" fill="#cffafe" opacity="0.56" />
<circle cx="529.05" cy="322.01" r="0.65" fill="#ecfeff" opacity="0.38" />
<circle cx="456.69" cy="317.21" r="1.45" fill="#cffafe" opacity="0.71" />
<circle cx="62.79" cy="219.78" r="0.59" fill="#e0f2fe" opacity="0.70" />
<circle cx="1094.14" cy="462.2" r="1.33" fill="#ecfeff" opacity="0.50" />
<circle cx="554.7" cy="685.83" r="0.74" fill="#e0f2fe" opacity="0.56" />
<circle cx="616.17" cy="7.98" r="0.89" fill="#f0fdfa" opacity="0.49" />
<circle cx="822.63" cy="406.68" r="0.73" fill="#cffafe" opacity="0.76" />
<circle cx="224.68" cy="45.86" r="0.70" fill="#f0fdfa" opacity="0.39" />
<circle cx="224.32" cy="182.8" r="1.01" fill="#ecfeff" opacity="0.82" />
<circle cx="731.21" cy="665.1" r="2.31" fill="#f0fdfa" opacity="0.60" />
<circle cx="987.63" cy="643.92" r="1.41" fill="#cffafe" opacity="0.68" />
<circle cx="980.71" cy="346.23" r="0.67" fill="#ecfeff" opacity="0.44" />
<circle cx="154.91" cy="6.2" r="1.41" fill="#cffafe" opacity="0.54" />
<circle cx="582.28" cy="3.06" r="0.95" fill="#e0f2fe" opacity="0.81" />
<circle cx="1129.04" cy="719.28" r="1.20" fill="#f0fdfa" opacity="0.56" />
<circle cx="254.32" cy="584.88" r="1.28" fill="#e0f2fe" opacity="0.58" />
<circle cx="1068.18" cy="599.35" r="1.81" fill="#cffafe" opacity="0.72" />
<circle cx="939.73" cy="217.16" r="1.03" fill="#cffafe" opacity="0.48" />
<circle cx="622.02" cy="586.04" r="1.64" fill="#e0f2fe" opacity="0.51" />
<circle cx="491.13" cy="82.86" r="1.14" fill="#cffafe" opacity="0.47" />
<circle cx="1159.46" cy="641.73" r="1.91" fill="#cffafe" opacity="0.51" />
<circle cx="1123.14" cy="209.92" r="0.51" fill="#f0fdfa" opacity="0.50" />
<circle cx="958.55" cy="133.21" r="0.90" fill="#f0fdfa" opacity="0.65" />
<circle cx="971.16" cy="407.77" r="1.10" fill="#cffafe" opacity="0.75" />
<circle cx="699.27" cy="429.47" r="0.87" fill="#e0f2fe" opacity="0.79" />
<circle cx="60.95" cy="321.87" r="1.07" fill="#cffafe" opacity="0.64" />
<circle cx="60.26" cy="368.33" r="0.86" fill="#f0fdfa" opacity="0.54" />
<circle cx="162.26" cy="37.81" r="1.92" fill="#e0f2fe" opacity="0.54" />
<circle cx="452.92" cy="396.8" r="0.76" fill="#f0fdfa" opacity="0.54" />
<circle cx="164.73" cy="389.24" r="1.70" fill="#e0f2fe" opacity="0.41" />
<circle cx="1118.5" cy="740.04" r="0.92" fill="#e0f2fe" opacity="0.62" />
<circle cx="659.65" cy="19.4" r="1.14" fill="#e0f2fe" opacity="0.39" />
<circle cx="251.37" cy="162.19" r="0.76" fill="#cffafe" opacity="0.60" />
<circle cx="505.26" cy="71.09" r="1.29" fill="#cffafe" opacity="0.66" />
<circle cx="28" cy="97.39" r="0.62" fill="#cffafe" opacity="0.74" />
<circle cx="1086.06" cy="127.12" r="0.63" fill="#ecfeff" opacity="0.60" />
<circle cx="113.92" cy="610.12" r="1.83" fill="#f0fdfa" opacity="0.55" />
<circle cx="16.5" cy="652.67" r="1.63" fill="#f0fdfa" opacity="0.57" />
<circle cx="545.1" cy="263.72" r="1.08" fill="#f0fdfa" opacity="0.59" />
<circle cx="896.8" cy="648.14" r="1.52" fill="#ecfeff" opacity="0.55" />
<circle cx="427.19" cy="162.79" r="2.10" fill="#ecfeff" opacity="0.40" />
<circle cx="603.93" cy="510.49" r="1.90" fill="#f0fdfa" opacity="0.62" />
<circle cx="67.4" cy="718.21" r="2.12" fill="#ecfeff" opacity="0.57" />
<circle cx="693.68" cy="183.81" r="1.08" fill="#f0fdfa" opacity="0.58" />
<circle cx="589.04" cy="49.22" r="0.88" fill="#f0fdfa" opacity="0.49" />
<circle cx="356.98" cy="260.55" r="1.32" fill="#ecfeff" opacity="0.41" />
<circle cx="54.64" cy="158.34" r="0.75" fill="#ecfeff" opacity="0.52" />
<circle cx="701.77" cy="548.09" r="1.89" fill="#f0fdfa" opacity="0.74" />
<circle cx="981.23" cy="346.23" r="1.78" fill="#ecfeff" opacity="0.74" />
<circle cx="532.19" cy="108.59" r="0.85" fill="#cffafe" opacity="0.67" />
<circle cx="310.52" cy="577.5" r="0.51" fill="#cffafe" opacity="0.53" />
<circle cx="216.56" cy="294.43" r="1.75" fill="#e0f2fe" opacity="0.48" />
<circle cx="433.25" cy="247.98" r="1.89" fill="#ecfeff" opacity="0.53" />
<circle cx="715.9" cy="195.55" r="1.25" fill="#e0f2fe" opacity="0.76" />
<circle cx="250.3" cy="441.61" r="0.63" fill="#e0f2fe" opacity="0.62" />
<circle cx="1133.56" cy="115.35" r="1.96" fill="#e0f2fe" opacity="0.67" />
<circle cx="465.39" cy="174.76" r="1.15" fill="#e0f2fe" opacity="0.39" />
<circle cx="480.24" cy="145.83" r="0.87" fill="#cffafe" opacity="0.39" />
<circle cx="398.85" cy="577.38" r="1.34" fill="#cffafe" opacity="0.63" />
<circle cx="22.4" cy="238.34" r="0.55" fill="#cffafe" opacity="0.49" />
<circle cx="1149.15" cy="76.11" r="0.62" fill="#e0f2fe" opacity="0.40" />
<circle cx="192.37" cy="731.74" r="0.97" fill="#e0f2fe" opacity="0.46" />
<circle cx="13.85" cy="450.76" r="1.30" fill="#cffafe" opacity="0.75" />
<circle cx="869.52" cy="696.87" r="0.93" fill="#cffafe" opacity="0.63" />
<circle cx="100.83" cy="101.67" r="0.72" fill="#f0fdfa" opacity="0.74" />
<circle cx="474.03" cy="754.58" r="0.59" fill="#f0fdfa" opacity="0.48" />
<circle cx="967.79" cy="135.56" r="1.23" fill="#e0f2fe" opacity="0.55" />
<circle cx="728.59" cy="532.66" r="1.24" fill="#f0fdfa" opacity="0.69" />
<circle cx="121.1" cy="468.52" r="1.52" fill="#f0fdfa" opacity="0.44" />
<circle cx="539.72" cy="694.95" r="1.18" fill="#ecfeff" opacity="0.58" />
<circle cx="429.39" cy="238.34" r="0.57" fill="#e0f2fe" opacity="0.47" />
<circle cx="337.41" cy="705.31" r="0.73" fill="#e0f2fe" opacity="0.62" />
<circle cx="1163.97" cy="266.68" r="1.86" fill="#e0f2fe" opacity="0.80" />
<circle cx="550.63" cy="306.75" r="1.51" fill="#e0f2fe" opacity="0.42" />
<circle cx="1186.37" cy="164.07" r="0.70" fill="#e0f2fe" opacity="0.63" />
<circle cx="831.77" cy="660.4" r="1.00" fill="#f0fdfa" opacity="0.74" />
<circle cx="192.46" cy="683.04" r="0.64" fill="#f0fdfa" opacity="0.58" />
<circle cx="155.44" cy="737.3" r="0.53" fill="#cffafe" opacity="0.52" />
<circle cx="635.68" cy="296.87" r="1.59" fill="#ecfeff" opacity="0.47" />
<circle cx="531.68" cy="664.38" r="0.62" fill="#f0fdfa" opacity="0.67" />
<circle cx="978.47" cy="18.2" r="1.12" fill="#cffafe" opacity="0.51" />
<circle cx="670.97" cy="129.93" r="0.99" fill="#f0fdfa" opacity="0.40" />
<circle cx="956.37" cy="33.99" r="1.96" fill="#cffafe" opacity="0.60" />
<circle cx="959.05" cy="532.09" r="1.33" fill="#e0f2fe" opacity="0.70" />
<circle cx="564.26" cy="450.83" r="2.08" fill="#cffafe" opacity="0.59" />
<circle cx="970.61" cy="135.09" r="1.15" fill="#e0f2fe" opacity="0.56" />
<circle cx="326.25" cy="34.09" r="0.98" fill="#e0f2fe" opacity="0.82" />
<circle cx="834.48" cy="657.28" r="0.90" fill="#ecfeff" opacity="0.48" />
<circle cx="589.27" cy="696.55" r="1.56" fill="#f0fdfa" opacity="0.51" />
<circle cx="680.85" cy="513.09" r="0.82" fill="#f0fdfa" opacity="0.58" />
<circle cx="28.37" cy="157.14" r="1.21" fill="#cffafe" opacity="0.39" />
<circle cx="288.79" cy="692.66" r="0.79" fill="#cffafe" opacity="0.66" />
<circle cx="700.1" cy="492.85" r="2.10" fill="#ecfeff" opacity="0.48" />
<circle cx="320.82" cy="125.88" r="1.25" fill="#ecfeff" opacity="0.80" />
<circle cx="284.96" cy="191.73" r="1.12" fill="#ecfeff" opacity="0.69" />
<circle cx="134.47" cy="74.15" r="1.45" fill="#cffafe" opacity="0.62" />
<circle cx="97.86" cy="168.04" r="1.46" fill="#f0fdfa" opacity="0.55" />
<circle cx="948.63" cy="516.98" r="1.12" fill="#cffafe" opacity="0.82" />
<circle cx="411.83" cy="139.17" r="0.79" fill="#e0f2fe" opacity="0.54" />
<circle cx="901.42" cy="540.68" r="1.85" fill="#e0f2fe" opacity="0.74" />
<circle cx="956.46" cy="414.47" r="1.42" fill="#cffafe" opacity="0.62" />
<circle cx="992.7" cy="132.74" r="1.19" fill="#f0fdfa" opacity="0.80" />
<circle cx="559.71" cy="548.6" r="1.63" fill="#e0f2fe" opacity="0.46" />
<circle cx="459.63" cy="440.79" r="0.46" fill="#f0fdfa" opacity="0.57" />
<circle cx="1007.01" cy="570.94" r="1.32" fill="#e0f2fe" opacity="0.42" />
<circle cx="871.67" cy="255.64" r="0.48" fill="#f0fdfa" opacity="0.81" />
<circle cx="1114.8" cy="381.29" r="1.37" fill="#ecfeff" opacity="0.58" />
<circle cx="387.78" cy="155.24" r="1.68" fill="#cffafe" opacity="0.48" />
<circle cx="431.08" cy="86.11" r="0.67" fill="#f0fdfa" opacity="0.72" />
<circle cx="631.82" cy="199.17" r="0.69" fill="#cffafe" opacity="0.80" />
<circle cx="537.64" cy="517.28" r="0.55" fill="#cffafe" opacity="0.68" />
<circle cx="397.05" cy="743.15" r="0.69" fill="#e0f2fe" opacity="0.46" />
<circle cx="649.56" cy="131.82" r="2.05" fill="#cffafe" opacity="0.46" />
<circle cx="580.18" cy="631.19" r="1.37" fill="#e0f2fe" opacity="0.42" />
<circle cx="710.6" cy="277.81" r="1.05" fill="#cffafe" opacity="0.79" />
<circle cx="400.14" cy="225.24" r="1.80" fill="#cffafe" opacity="0.41" />
<circle cx="308.75" cy="81.18" r="1.17" fill="#ecfeff" opacity="0.57" />
<circle cx="545.51" cy="418.84" r="0.76" fill="#cffafe" opacity="0.79" />
<circle cx="479.97" cy="569.77" r="2.06" fill="#ecfeff" opacity="0.70" />
<circle cx="187.19" cy="168.87" r="1.62" fill="#cffafe" opacity="0.62" />
<circle cx="468.16" cy="191.97" r="1.42" fill="#cffafe" opacity="0.69" />
<circle cx="84.24" cy="391.08" r="1.72" fill="#cffafe" opacity="0.45" />
<circle cx="475" cy="332.28" r="1.05" fill="#e0f2fe" opacity="0.42" />
<circle cx="175.64" cy="152.44" r="0.73" fill="#e0f2fe" opacity="0.50" />
<circle cx="825.85" cy="664.93" r="1.44" fill="#f0fdfa" opacity="0.70" />
<circle cx="783.86" cy="116.54" r="0.99" fill="#ecfeff" opacity="0.67" />
<circle cx="93.51" cy="396.06" r="0.80" fill="#f0fdfa" opacity="0.44" />
<circle cx="1074.31" cy="439.96" r="1.16" fill="#cffafe" opacity="0.67" />
<circle cx="484.99" cy="591.47" r="0.63" fill="#f0fdfa" opacity="0.72" />
<circle cx="924.83" cy="467.91" r="1.26" fill="#f0fdfa" opacity="0.59" />
<circle cx="1127.6" cy="176.37" r="1.17" fill="#e0f2fe" opacity="0.68" />
<circle cx="315.32" cy="344.6" r="0.88" fill="#ecfeff" opacity="0.42" />
<circle cx="288.8" cy="574.22" r="0.92" fill="#f0fdfa" opacity="0.52" />
<circle cx="10.78" cy="84.15" r="0.99" fill="#f0fdfa" opacity="0.41" />
<circle cx="123.53" cy="367.63" r="1.03" fill="#e0f2fe" opacity="0.73" />
<circle cx="1049.07" cy="283.56" r="0.76" fill="#f0fdfa" opacity="0.64" />
<circle cx="441.31" cy="62.33" r="0.82" fill="#cffafe" opacity="0.60" />
<circle cx="585.96" cy="305.84" r="0.65" fill="#f0fdfa" opacity="0.74" />
<circle cx="57.31" cy="129.62" r="1.96" fill="#ecfeff" opacity="0.68" />
<circle cx="655.12" cy="406.52" r="0.75" fill="#ecfeff" opacity="0.82" />
<circle cx="966.41" cy="583.56" r="1.54" fill="#e0f2fe" opacity="0.73" />
<circle cx="28.82" cy="615.21" r="2.00" fill="#f0fdfa" opacity="0.38" />
<circle cx="1115.47" cy="599.48" r="1.94" fill="#cffafe" opacity="0.70" />
<circle cx="265.22" cy="361.91" r="2.07" fill="#f0fdfa" opacity="0.79" />
<circle cx="140.3" cy="392.31" r="0.93" fill="#e0f2fe" opacity="0.42" />
<circle cx="119.09" cy="132.74" r="1.38" fill="#f0fdfa" opacity="0.47" />
<circle cx="249" cy="715.19" r="1.72" fill="#e0f2fe" opacity="0.57" />
<circle cx="399.67" cy="481.9" r="1.53" fill="#f0fdfa" opacity="0.76" />
<circle cx="987.05" cy="74.17" r="0.99" fill="#cffafe" opacity="0.58" />
<circle cx="707.35" cy="683.37" r="1.15" fill="#f0fdfa" opacity="0.66" />
<circle cx="700.15" cy="719.9" r="2.21" fill="#f0fdfa" opacity="0.71" />
<circle cx="748.22" cy="87.15" r="0.90" fill="#e0f2fe" opacity="0.68" />
<circle cx="1190.8" cy="362.12" r="0.76" fill="#ecfeff" opacity="0.74" />
<circle cx="1114.7" cy="310.94" r="1.36" fill="#cffafe" opacity="0.76" />
<circle cx="52.88" cy="559.53" r="0.59" fill="#e0f2fe" opacity="0.59" />
<circle cx="266.53" cy="313.87" r="1.45" fill="#cffafe" opacity="0.52" />
<circle cx="425.37" cy="622.18" r="0.99" fill="#f0fdfa" opacity="0.42" />
<circle cx="1157.94" cy="130.71" r="0.47" fill="#ecfeff" opacity="0.76" />
<circle cx="724.53" cy="56.66" r="1.31" fill="#cffafe" opacity="0.73" />
<circle cx="409.72" cy="25.38" r="1.01" fill="#cffafe" opacity="0.58" />
<circle cx="902.33" cy="383.76" r="1.90" fill="#ecfeff" opacity="0.69" />
<circle cx="671.01" cy="411.32" r="0.84" fill="#cffafe" opacity="0.75" />
<circle cx="228.8" cy="71.73" r="0.99" fill="#ecfeff" opacity="0.65" />
<circle cx="1177.75" cy="3.22" r="0.98" fill="#ecfeff" opacity="0.70" />
<circle cx="882.49" cy="278.43" r="1.06" fill="#cffafe" opacity="0.62" />
<circle cx="486.59" cy="146.64" r="1.37" fill="#e0f2fe" opacity="0.67" />
<circle cx="205.55" cy="437.16" r="0.78" fill="#e0f2fe" opacity="0.39" />
<circle cx="354.38" cy="746.07" r="0.57" fill="#e0f2fe" opacity="0.80" />
<circle cx="193.73" cy="500.49" r="0.81" fill="#f0fdfa" opacity="0.67" />
<circle cx="1095.05" cy="639.04" r="0.81" fill="#e0f2fe" opacity="0.43" />
<circle cx="3.94" cy="611.38" r="1.82" fill="#f0fdfa" opacity="0.61" />
<circle cx="647" cy="297.45" r="1.45" fill="#e0f2fe" opacity="0.40" />
<circle cx="779.94" cy="246.18" r="1.60" fill="#f0fdfa" opacity="0.48" />
<circle cx="730.18" cy="463.36" r="0.80" fill="#e0f2fe" opacity="0.50" />
<circle cx="323.19" cy="235.06" r="0.94" fill="#f0fdfa" opacity="0.60" />
<circle cx="178.78" cy="588.07" r="1.27" fill="#cffafe" opacity="0.65" />
<circle cx="576.01" cy="748.57" r="0.85" fill="#ecfeff" opacity="0.39" />
<circle cx="185.85" cy="755.26" r="1.25" fill="#ecfeff" opacity="0.66" />
<circle cx="460.72" cy="68.61" r="2.08" fill="#e0f2fe" opacity="0.66" />
<circle cx="775.45" cy="214.41" r="0.83" fill="#cffafe" opacity="0.50" />
<circle cx="534.83" cy="756.53" r="1.27" fill="#ecfeff" opacity="0.56" />
<circle cx="393.98" cy="665.34" r="0.61" fill="#ecfeff" opacity="0.81" />
<circle cx="158.19" cy="331.31" r="1.02" fill="#ecfeff" opacity="0.41" />
<circle cx="219.44" cy="169.78" r="1.38" fill="#f0fdfa" opacity="0.51" />
<circle cx="300.64" cy="292.65" r="1.55" fill="#ecfeff" opacity="0.58" />
<circle cx="1057.95" cy="54.92" r="1.58" fill="#cffafe" opacity="0.55" />
<circle cx="1016.08" cy="204.23" r="1.49" fill="#f0fdfa" opacity="0.46" />
<circle cx="412.77" cy="87.17" r="0.79" fill="#cffafe" opacity="0.47" />
<circle cx="815.73" cy="428.63" r="1.17" fill="#cffafe" opacity="0.66" />
<circle cx="1121.54" cy="605.12" r="0.61" fill="#cffafe" opacity="0.49" />
<circle cx="852.91" cy="118.38" r="1.63" fill="#cffafe" opacity="0.38" />
<circle cx="634.67" cy="498.86" r="1.65" fill="#ecfeff" opacity="0.42" />
<circle cx="1081.68" cy="218.91" r="0.67" fill="#ecfeff" opacity="0.52" />
<circle cx="279.55" cy="257.07" r="0.63" fill="#cffafe" opacity="0.54" />
<circle cx="65.9" cy="11.09" r="1.71" fill="#e0f2fe" opacity="0.64" />
<circle cx="1046.14" cy="494.9" r="0.63" fill="#ecfeff" opacity="0.47" />
<circle cx="1050.78" cy="55.97" r="0.43" fill="#e0f2fe" opacity="0.66" />
<circle cx="743.96" cy="738.46" r="1.56" fill="#cffafe" opacity="0.61" />
<circle cx="443.78" cy="182.91" r="1.72" fill="#f0fdfa" opacity="0.64" />
<circle cx="35.11" cy="734.91" r="0.78" fill="#cffafe" opacity="0.81" />
<circle cx="803.37" cy="482.19" r="1.08" fill="#e0f2fe" opacity="0.47" />
<circle cx="903.58" cy="278.21" r="0.93" fill="#ecfeff" opacity="0.72" />
<circle cx="534.38" cy="648.77" r="1.69" fill="#ecfeff" opacity="0.69" />
<circle cx="495.25" cy="269.38" r="0.77" fill="#e0f2fe" opacity="0.45" />
<circle cx="1044.78" cy="570.88" r="1.33" fill="#f0fdfa" opacity="0.52" />
<circle cx="628.65" cy="311.7" r="0.46" fill="#cffafe" opacity="0.44" />
<circle cx="481.35" cy="682.14" r="0.96" fill="#cffafe" opacity="0.78" />
<circle cx="68.76" cy="426.37" r="1.18" fill="#e0f2fe" opacity="0.61" />
<circle cx="1029.57" cy="72" r="0.76" fill="#cffafe" opacity="0.75" />
</g>
<g fill="none" stroke-linecap="round" stroke-linejoin="round" opacity="0.42">
<path d="M 731.21 665.1 L 807.74 247.8 L 1115.47 599.48 L 956.37 33.99 L 57.31 129.62 L 73.93 743.69" stroke="#22d3ee" stroke-width="1.4" />
<path d="M 534.38 648.77 L 295.13 98.87 L 77.52 386.61 L 136.85 263.47 L 1163.97 266.68 L 12.85 297.3" stroke="#5eead4" stroke-width="1.4" />
<path d="M 460.72 68.61 L 546.3 134.73 L 966.41 583.56 L 1089.19 664.7 L 479.97 569.77 L 65.9 11.09" stroke="#7dd3fc" stroke-width="1.4" />
<path d="M 1068.18 599.35 L 1133.56 115.35 L 603.93 510.49 L 564.26 450.83 L 700.15 719.9 L 265.22 361.91" stroke="#22d3ee" stroke-width="1.4" />
</g>
<g><g><line x1="324.79" y1="279.44" x2="406.29" y2="337.63" stroke="#ecfeff" stroke-width="1.6" opacity="0.7" stroke-linecap="round" /><circle cx="324.79" cy="279.44" r="2.2" fill="#ecfeff" filter="url(#6bb3f6bea1-glow)" /></g>
<g><line x1="460.08" y1="375.46" x2="518.81" y2="421.72" stroke="#ecfeff" stroke-width="1.6" opacity="0.7" stroke-linecap="round" /><circle cx="460.08" cy="375.46" r="2.2" fill="#ecfeff" filter="url(#6bb3f6bea1-glow)" /></g>
<g><line x1="277.27" y1="85.89" x2="391.26" y2="136.7" stroke="#ecfeff" stroke-width="1.6" opacity="0.7" stroke-linecap="round" /><circle cx="277.27" cy="85.89" r="2.2" fill="#ecfeff" filter="url(#6bb3f6bea1-glow)" /></g>
<g><line x1="659.36" y1="115.38" x2="750.52" y2="174.55" stroke="#ecfeff" stroke-width="1.6" opacity="0.7" stroke-linecap="round" /><circle cx="659.36" cy="115.38" r="2.2" fill="#ecfeff" filter="url(#6bb3f6bea1-glow)" /></g></g>
<g filter="url(#6bb3f6bea1-glow)">
<g><circle cx="711.03" cy="350.91" r="27.08" fill="#0ea5e9" opacity="0.96" /><circle cx="703.44" cy="344.14" r="10.29" fill="#ffffff" opacity="0.18" /><path d="M 683.95 370.4 C 705.61 382.04, 731.33 376.63, 738.1 348.2" fill="none" stroke="#082630" stroke-width="3.2" opacity="0.24" /></g>
<g><circle cx="319.16" cy="250.45" r="36.14" fill="#0ea5e9" opacity="0.96" /><circle cx="309.04" cy="241.42" r="13.73" fill="#ffffff" opacity="0.18" /><path d="M 283.02 276.47 C 311.93 292.01, 346.26 284.78, 355.3 246.84" fill="none" stroke="#04141c" stroke-width="4.3" opacity="0.24" /></g>
<g><circle cx="177.27" cy="484.04" r="28.59" fill="#7dd3fc" opacity="0.96" /><circle cx="169.27" cy="476.89" r="10.87" fill="#ffffff" opacity="0.18" /><path d="M 148.68 504.63 C 171.56 516.93, 198.72 511.21, 205.87 481.18" fill="none" stroke="#04141c" stroke-width="3.4" opacity="0.24" /></g>
<g><circle cx="209.89" cy="400.06" r="15.54" fill="#06b6d4" opacity="0.96" /><circle cx="205.54" cy="396.18" r="5.91" fill="#ffffff" opacity="0.18" /><path d="M 194.35 411.25 C 206.78 417.94, 221.54 414.83, 225.43 398.51" fill="none" stroke="#082630" stroke-width="2.0" opacity="0.24" /></g>
</g>
<g filter="url(#6bb3f6bea1-glow)">
<circle cx="794.95" cy="265.35" r="58.15" fill="#ecfeff" opacity="0.95" />
<circle cx="815.3" cy="259.54" r="55.25" fill="#082630" opacity="0.22" />
<circle cx="809.57" cy="260.24" r="6.3" fill="#04141c" opacity="0.25" />
<circle cx="809.95" cy="246.13" r="8.63" fill="#04141c" opacity="0.25" />
<circle cx="791.98" cy="260.92" r="10.34" fill="#04141c" opacity="0.25" />
<circle cx="779.76" cy="276.78" r="3.01" fill="#04141c" opacity="0.25" />
<circle cx="797.32" cy="284.69" r="7.73" fill="#04141c" opacity="0.25" />
<circle cx="792.43" cy="246.95" r="9.97" fill="#04141c" opacity="0.25" />
<circle cx="771.75" cy="252.86" r="6.72" fill="#04141c" opacity="0.25" />
</g>
<g font-family="Avenir Next, Inter, Segoe UI, sans-serif"><text x="54" y="45.6" fill="#22d3ee" font-size="13.8" letter-spacing="3" opacity="0.85">STARWEAVE · GAMMA LANTERN</text><text x="54" y="691.6" fill="#f8fafc" font-size="52.8" font-weight="800">tidal lock</text><text x="54" y="721.6" fill="#22d3ee" font-size="15.6" opacity="0.88">seed: tidal lock</text><text x="54" y="743.6" fill="#cbd5e1" font-size="13.8" opacity="0.7" font-style="italic">sunken things, listening over the edge of count</text></g>
</svg>